<svg xmlns="http://www.w3.org/2000/svg" xmlns:xlink="http://www.w3.org/1999/xlink" width="700" height="524"><g id="graph0" class="graph" transform="scale(1.38889 1.38889) rotate(0) translate(4 279)"><title>n=3</title><polygon fill="#fff" stroke="transparent" points="-4 4 -4 -279 373.69 -279 373.69 4 -4 4"/><text x="184.85" y="-7.8" font-family="Times,serif" font-size="14" text-anchor="middle">n=3</text><g id="node1" class="node"><title>\:peak\: #\{\}</title><ellipse cx="50.7" cy="-41" fill="none" stroke="#000" rx="48.19" ry="18"/><text x="50.7" y="-37.3" font-family="Times,serif" font-size="14" text-anchor="middle">:peak: #{}</text></g><g id="node2" class="node"><title>\:range\: #\{\}</title><ellipse cx="50.7" cy="-113" fill="none" stroke="#000" rx="50.89" ry="18"/><text x="50.7" y="-109.3" font-family="Times,serif" font-size="14" text-anchor="middle">:range: #{}</text></g><g id="edge1" class="edge"><title>\:peak\: #\{\}--\:range\: #\{\}</title><path fill="none" stroke="#000" d="M50.7,-59.3C50.7,-70.15 50.7,-84.08 50.7,-94.9"/></g><g id="node3" class="node"><title>\:belt\: #\{\}</title><ellipse cx="53.7" cy="-185" fill="none" stroke="#000" rx="44.39" ry="18"/><text x="53.7" y="-181.3" font-family="Times,serif" font-size="14" text-anchor="middle">:belt: #{}</text></g><g id="edge2" class="edge"><title>\:range\: #\{\}--\:belt\: #\{\}</title><path fill="none" stroke="#000" d="M51.44,-131.3C51.9,-142.15 52.5,-156.08 52.96,-166.9"/></g><g id="node4" class="node"><title>\:belt\: #\{0..2\}</title><ellipse cx="183.7" cy="-257" fill="none" stroke="#000" rx="57.69" ry="18"/><text x="183.7" y="-253.3" font-family="Times,serif" font-size="14" text-anchor="middle">:belt: #{0..2}</text></g><g id="edge3" class="edge"><title>\:belt\: #\{\}--\:belt\: #\{0..2\}</title><path fill="none" stroke="#000" d="M79.38,-199.83C101.43,-211.7 133.15,-228.78 155.81,-240.99"/></g><g id="node5" class="node"><title>\:peak\: #\{0..1\}</title><ellipse cx="183.7" cy="-41" fill="none" stroke="#000" rx="61.99" ry="18"/><text x="183.7" y="-37.3" font-family="Times,serif" font-size="14" text-anchor="middle">:peak: #{0..1}</text></g><g id="node6" class="node"><title>\:range\: #\{0..1\}</title><ellipse cx="183.7" cy="-113" fill="none" stroke="#000" rx="64.19" ry="18"/><text x="183.7" y="-109.3" font-family="Times,serif" font-size="14" text-anchor="middle">:range: #{0..1}</text></g><g id="edge4" class="edge"><title>\:peak\: #\{0..1\}--\:range\: #\{0..1\}</title><path fill="none" stroke="#000" d="M183.7,-59.3C183.7,-70.15 183.7,-84.08 183.7,-94.9"/></g><g id="node7" class="node"><title>\:range\: #\{0..2\}</title><ellipse cx="183.7" cy="-185" fill="none" stroke="#000" rx="64.19" ry="18"/><text x="183.7" y="-181.3" font-family="Times,serif" font-size="14" text-anchor="middle">:range: #{0..2}</text></g><g id="edge5" class="edge"><title>\:range\: #\{0..1\}--\:range\: #\{0..2\}</title><path fill="none" stroke="#000" d="M183.7,-131.3C183.7,-142.15 183.7,-156.08 183.7,-166.9"/></g><g id="edge6" class="edge"><title>\:range\: #\{0..2\}--\:belt\: #\{0..2\}</title><path fill="none" stroke="#000" d="M177.82,-202.95C176.67,-213.79 176.66,-227.82 177.78,-238.72"/></g><g id="edge8" class="edge"><title>\:range\: #\{0..2\}--\:belt\: #\{0..2\}</title><path fill="none" stroke="#000" d="M189.57,-202.95C190.72,-213.79 190.74,-227.82 189.61,-238.72"/></g><g id="node8" class="node"><title>\:peak\: #\{2\}</title><ellipse cx="317.7" cy="-113" fill="none" stroke="#000" rx="51.99" ry="18"/><text x="317.7" y="-109.3" font-family="Times,serif" font-size="14" text-anchor="middle">:peak: #{2}</text></g><g id="edge7" class="edge"><title>\:peak\: #\{2\}--\:range\: #\{0..2\}</title><path fill="none" stroke="#000" d="M290.26,-128.33C267.74,-140.09 235.95,-156.7 212.96,-168.71"/></g></g></svg>